PathFileType	4	(X/Y/Z)	./resultDataOpenSim/trcMotMarkerGrf/sub10/qtm-15-06.trc
DataRate	CameraRate	NumFrames	NumMarkers	Units	OrigDataRate	OrigDataStartFrame	OrigNumFrames
250.000000	250.000000	5	24	m	250.000000	65	518
Frame#	Time	L.Toe.Tip			R.Toe.Tip			L.Ankle.Lat			R.Ankle.Lat			L.Ankle.Med			R.Ankle.Med			L.Heel			R.Heel			L.Knee.Lat			R.Knee.Lat			L.Knee.Med			R.Knee.Med			L.Thigh.Upper			R.Thigh.Upper			L.ASIS			R.ASIS			V.Sacral			L.Acromium			R.Acromium			C7			L.Elbow			R.Elbow			L.Wrist.Lat			R.Wrist.Lat
		X1	Y1	Z1	X2	Y2	Z2	X3	Y3	Z3	X4	Y4	Z4	X5	Y5	Z5	X6	Y6	Z6	X7	Y7	Z7	X8	Y8	Z8	X9	Y9	Z9	X10	Y10	Z10	X11	Y11	Z11	X12	Y12	Z12	X13	Y13	Z13	X14	Y14	Z14	X15	Y15	Z15	X16	Y16	Z16	X17	Y17	Z17	X18	Y18	Z18	X19	Y19	Z19	X20	Y20	Z20	X21	Y21	Z21	X22	Y22	Z22	X23	Y23	Z23	X24	Y24	Z24

65	0.256	-1.3377563	0.085980111	-0.21155079	-0.8025931	0.039055797	-0.025082496	-1.3444362	0.2233562	-0.24517638	-0.94300222	0.053214315	0.0054108049	-1.3167604	0.21700256	-0.16578482	-0.92382258	0.079541724	-0.079062101	-1.3920867	0.26895909	-0.19870674	-0.99428783	0.028759862	-0.045252953	-1.0251875	0.41727883	-0.26613264	-0.90897889	0.45673268	0.035653812	-1.0085863	0.38154783	-0.15079591	-0.90554054	0.45930206	-0.091699278	-1.0166709	0.79449356	-0.29224821	-0.98412171	0.86620603	0.085901152	-0.95285996	0.91135927	-0.24158913	-0.92576802	0.94703447	0.0014335877	-1.1411939	0.94087591	-0.10615684	-0.99569631	1.4033369	-0.25960643	-1.035451	1.3854469	0.065269292	-1.1043152	1.4240744	-0.10772128	-1.0368843	1.058491	-0.31865123	-1.1307768	1.0530502	0.085253735	-0.85180322	0.89513607	-0.29582304	-1.0576471	0.8347983	0.16809146
66	0.26	-1.3216616	0.086446348	-0.21122585	-0.80266989	0.039092914	-0.025086726	-1.3317304	0.22367905	-0.2444605	-0.94306513	0.053268145	0.0053604614	-1.3043166	0.21796529	-0.16506496	-0.92389923	0.079574965	-0.079157454	-1.3809619	0.268162	-0.19796744	-0.99431304	0.028752248	-0.045302784	-1.0131861	0.41864683	-0.26546315	-0.9070518	0.45678822	0.035969588	-0.996662	0.38335419	-0.14981394	-0.9036671	0.45909515	-0.091529914	-1.0113753	0.79614867	-0.29213223	-0.97903135	0.86680404	0.086317897	-0.94681173	0.91318546	-0.24131419	-0.92069175	0.94793484	0.0021464659	-1.1357039	0.94210298	-0.10623009	-0.9903118	1.404615	-0.25937343	-1.0297564	1.386924	0.065570187	-1.0987629	1.4253474	-0.10736834	-1.0325069	1.0598898	-0.31805147	-1.1242167	1.0540969	0.086308864	-0.84899637	0.89484912	-0.29623414	-1.0482239	0.8360792	0.16816131
67	0.264	-1.3056051	0.086752988	-0.21094966	-0.80275822	0.039131894	-0.025087178	-1.3188358	0.22364434	-0.24375015	-0.94314697	0.053335043	0.0052998125	-1.2914995	0.21858752	-0.16434228	-0.9239982	0.07961313	-0.079253496	-1.3694282	0.26711156	-0.19730282	-0.99431156	0.028751471	-0.045415145	-1.0009107	0.42007914	-0.2649912	-0.90517585	0.4568535	0.036269389	-0.9848379	0.38519734	-0.14883171	-0.90187843	0.45889473	-0.091376744	-1.0061216	0.79777952	-0.29206289	-0.97450976	0.86732659	0.086593216	-0.94103467	0.91493921	-0.24110708	-0.91579439	0.94885822	0.002854887	-1.1302191	0.94334978	-0.1062824	-0.98502284	1.4058865	-0.25914985	-1.0240828	1.3884026	0.0658737	-1.0932033	1.4266273	-0.10700921	-1.0281651	1.0612986	-0.31744364	-1.1175704	1.0550216	0.087232297	-0.8462663	0.89459241	-0.29668744	-1.0387781	0.83738575	0.16819038
68	0.268	-1.2897973	0.08684114	-0.21051933	-0.80286262	0.039176715	-0.025079546	-1.3057671	0.22323578	-0.24304196	-0.94320595	0.053415966	0.0052237302	-1.2784736	0.2188391	-0.16360049	-0.92411898	0.079656293	-0.07934686	-1.3573902	0.26580694	-0.19678266	-0.99428361	0.028757715	-0.045600042	-0.98838036	0.42157845	-0.26472912	-0.90353276	0.45686149	0.036491751	-0.97310035	0.38708736	-0.14783642	-0.90019199	0.45871356	-0.091236009	-1.0007565	0.7994131	-0.29194021	-0.97087217	0.86772282	0.086610432	-0.93553764	0.91663496	-0.2409592	-0.91106595	0.94979647	0.0035599571	-1.1247366	0.94461168	-0.10630265	-0.97980095	1.4071528	-0.2589334	-1.0184566	1.3898759	0.066191468	-1.0876315	1.4279121	-0.10663707	-1.0238687	1.0627141	-0.31686341	-1.1108048	1.0557248	0.087810805	-0.84361701	0.89436375	-0.2971774	-1.0293222	0.83872193	0.16818219
69	0.272	-1.2742262	0.086691925	-0.20987068	-0.80298442	0.039228662	-0.025058799	-1.2925573	0.22250752	-0.24232482	-0.94318553	0.053498629	0.0051273869	-1.2653509	0.21874167	-0.16283621	-0.92426543	0.07970266	-0.07943516	-1.3450361	0.26426054	-0.19627182	-0.99425152	0.028766663	-0.045797406	-0.97587328	0.42315004	-0.26448898	-0.90222873	0.45675871	0.036617099	-0.96142076	0.38903352	-0.14681022	-0.89867571	0.45853514	-0.091102777	-0.99517391	0.80107762	-0.29171969	-0.96777056	0.86803966	0.086484145	-0.93016014	0.91832126	-0.24079631	-0.90642816	0.95074803	0.0042753397	-1.1192597	0.94587899	-0.10630003	-0.97461532	1.4084105	-0.25871297	-1.0129036	1.3913351	0.066520881	-1.0820525	1.429193	-0.1062675	-1.0196249	1.06413	-0.31635212	-1.1039231	1.0562249	0.088054776	-0.8410331	0.89415382	-0.2976877	-1.0198093	0.84009619	0.16814859
